<svg width="580" height="172" xmlns="http://www.w3.org/2000/svg">
 <!-- Created with Method Draw - http://github.com/duopixel/Method-Draw/ -->
 <defs>
  <filter id="svg_1_blur">
   <feGaussianBlur stdDeviation="0.4" in="SourceGraphic"/>
  </filter>
 </defs>
 <g>
  <title>background</title>
  <rect fill="#fff" id="canvas_background" height="174" width="582" y="-1" x="-1"/>
  <g display="none" overflow="visible" y="0" x="0" height="100%" width="100%" id="canvasGrid">
   <rect fill="url(#gridpattern)" stroke-width="0" y="0" x="0" height="100%" width="100%"/>
  </g>
 </g>
 <g>
  <title>Layer 1</title>
  <text transform="matrix(1.12236, 0, 0, 0.634646, -32.8283, 13.4382)" font-style="italic" filter="url(#svg_1_blur)" xml:space="preserve" text-anchor="start" font-family="'Palatino Linotype', 'Book Antiqua', Palatino, serif" font-size="119" id="svg_1" y="193.87554" x="29.236794" stroke-width="4" stroke="#000" fill="#000000">Cognitio</text>
  <path id="svg_6" d="m539.602661,71.129951c0,0 13.586182,2.571045 16.810059,11.459351c0,0 2.887085,3.452744 2.03894,5.28936c-0.848511,1.836304 -2.20874,2.424004 -2.547974,2.644218c0,0 1.699463,-1.689377 -4.075317,-4.407669c0,0 -2.972351,-0.440384 -3.565979,-0.881302c-0.593933,-0.440773 -9.338318,-1.909897 -11.207458,1.762978c-1.866333,3.672958 -2.290649,9.84343 -2.036072,10.137138c0.254578,0.293999 8.913818,5.876854 9.677307,7.492958c0.76355,1.616119 4.841309,4.92186 6.623047,4.848495c1.784668,-0.07338 6.029541,-0.07338 7.132446,-1.32251c1.102905,-1.24881 4.32959,-1.395554 5.092896,0c0.766541,1.395874 0.512207,1.32251 0.512207,1.32251c0,0 2.714722,-0.514313 3.565918,1.322205c0.848389,1.836365 -1.275391,2.644348 -1.529907,2.644348c-0.254578,0 1.614624,-2.791656 -1.018188,-2.203812c0,0 -1.530029,0.055038 -1.530029,-0.440536c0,-0.49588 0.893921,2.589523 0,2.644348c0,0 -2.991943,-2.864731 -3.565918,-1.32225c0,0 -1.908997,0.330582 -2.545166,0.440521c-0.636169,0.110458 -0.509033,0.441132 -0.509033,0.441132c0,0 -1.657227,0.550919 -0.511719,2.203644c0,0 0,0.606232 -0.509033,0.881592c-0.509033,0.275635 0.319275,1.597778 2.547974,0.440414c0,0 0.574097,-0.440414 0.508911,0c-0.062134,0.441269 -2.290771,2.810272 -5.093262,-0.440414c0,0 -1.020874,-2.479279 0.509094,-3.085236c1.527283,-0.606201 -0.509094,-1.818192 -2.548035,-0.881653c0,0 -0.127319,1.763214 0.509033,2.203918c0.63916,0.440491 -1.080383,0.055023 -1.527161,-0.440704c-0.446716,-0.495789 -1.018188,1.046631 -1.018188,1.322083c0,0.275436 -0.573853,1.212051 -1.020813,0.881592c-0.443665,-0.330338 -4.646667,-0.716431 -4.583984,-0.44075c0.064819,0.275391 -1.973999,1.432617 -2.54834,0.881165c-0.571106,-0.550858 -3.755249,-3.360626 -4.074951,-3.085052c-0.316772,0.275436 2.165894,3.360916 3.56604,3.966919c1.402771,0.605972 7.259644,0.991638 9.171204,-0.440598c0,0 2.929993,-0.496109 3.05719,0c0,0 3.311401,1.156631 3.054321,1.762695c-0.254822,0.606308 -0.254822,0.275543 -0.509033,0c-0.254639,-0.275452 -2.355774,-1.267105 -2.545288,-0.881424c-0.192383,0.385834 0,0.440903 0,0.440903c0,0 2.672363,0.661026 2.545288,0.88147c0,0 3.12207,1.10173 2.547974,3.52597c0,0 -0.955933,0.606216 -1.018188,0c-0.065063,-0.605942 0.381714,-2.258896 -1.529785,-2.203873c0,0 -0.317139,0.881668 -1.527283,0.440826c-1.210388,-0.440826 0.701233,-1.377167 -5.605164,-0.881668c0,0 0.254639,1.047058 1.020813,1.32251c0.763306,0.275284 2.036316,0.275284 2.036316,1.322205c0,0 0.828735,0.88179 0,1.762802c0,0 -0.509155,0.27565 -0.509155,0c0,-0.275116 0.509155,-1.597595 -2.036133,-2.203674c-2.547852,-0.606049 -2.03894,-0.440598 -2.03894,-0.440598c0,0 0.446777,2.644272 -0.508911,2.644272c-0.956055,0 0.63623,1.653137 2.547852,0.881577c0,0 0.189819,-0.660965 0.508972,-0.440521c0.316895,0.220337 -1.591858,3.415817 -5.095886,-0.441055c0,0 -1.145386,-2.03833 0,-2.644272c0,0 0.76355,-2.03833 -3.057251,-1.322403c0,0 -1.58905,0.220367 -1.5271,0c0.065308,-0.220367 -0.254395,1.046753 0,1.322403c0.254639,0.275528 -2.99176,-0.606094 -3.056885,-0.881577l-1.018127,0c0,0 0.593811,2.571045 1.018127,2.644836c0.424316,0.073135 -1.951294,-1.249268 -2.547974,-2.203995c0,0 0,1.836273 0.511902,2.203995c0.508789,0.367004 -2.29364,-1.983612 -2.039185,-2.203995c0,0 0.085022,2.350616 1.01825,3.526062c0.935913,1.17511 -2.036255,-1.102097 -2.545105,-1.763107c0,0 -0.509094,0.293701 0,0.881363c0.50885,0.587784 -1.69989,-0.587662 -2.039124,-2.203583c0,0 -1.4422,-1.028458 -2.036194,-1.322403c0,0 0.0849,2.49791 0.508972,2.644623c0,0 -1.19043,-0.808228 -1.529846,-1.762955c0,0 -0.678711,0.881332 -0.509216,1.322205c0,0 -1.951294,-1.909927 -2.547729,-3.52597c-0.593994,-1.616318 -0.509155,0.44075 -0.509155,0.44075c0,0 -1.187622,-0.147232 -2.036133,-3.085663c0,0 -4.926331,4.481064 -6.623108,4.848679c-1.699585,0.367371 2.036194,-1.763016 2.036194,-1.763016c0,0 -2.799805,0.734421 -3.054382,1.322174c0,0 0.254578,-0.808182 1.527283,-1.762924c1.272461,-0.95488 -1.527283,-0.440948 -1.527283,-0.440948c0,0 -0.596558,-0.14682 -0.50885,-4.848053c0,0 -3.82373,3.525955 -6.114349,3.525955c-2.293396,0 2.121063,-1.46933 2.548309,-2.64476c0.42395,-1.175018 -0.936157,-0.807831 -1.530151,-0.440491c-0.59375,0.367218 -5.008362,2.570862 -5.093201,3.085251c-0.08493,0.514313 -0.509064,-0.881866 -0.509064,-0.881866c0,0 -1.020721,0.441269 -2.03894,0.441269c-1.018158,0 2.972107,-1.616425 3.566071,-2.644653c0.593811,-1.028519 -5.517517,1.836304 -7.641296,3.085251c0,0 -1.784515,0.514313 -2.038727,0c-0.254761,-0.514389 3.056824,-2.497681 3.056824,-2.64476c0,-0.146912 1.19043,-1.395508 -1.018097,-0.440491c-2.208496,0.954865 -5.093231,0.22049 -7.132233,0.881378c-2.03894,0.661224 -4.244629,2.718185 -7.132111,2.644547c-2.887268,-0.073456 -2.884369,3.085297 -8.150452,3.085297c-3.057037,0 -1.784088,1.02832 -3.057037,0.881577c-1.272522,-0.147171 1.527252,-1.322403 1.527252,-1.322403c0,0 -3.054047,0.881668 -3.565948,0.881668c-0.509094,0 -2.799896,0.073456 2.547821,-1.763016c0,0 -3.905182,0 -2.547821,-0.44075c1.360291,-0.440948 4.756744,-1.322372 4.586761,-1.763046c-0.169647,-0.440598 -3.651001,-0.367249 -2.548065,-0.881866c1.102936,-0.513931 7.132477,-2.423981 5.605499,-2.644089c-1.530273,-0.220581 -3.736115,-0.293823 -2.548462,-0.881561c1.187805,-0.58786 15.791656,-1.983307 17.830627,-3.525955c2.036346,-1.542801 7.30188,-6.023682 8.659393,-6.170532c1.357208,-0.147186 0,-1.248947 -1.018158,-0.881668c-1.020813,0.367157 -1.954163,-0.220032 -1.529602,-2.644394c0.42392,-2.42424 -4.369385,5.315735 -7.132477,2.644394c-1.442322,-1.395645 -0.339417,-2.424057 -2.036194,-2.203674c-1.699554,0.220444 -1.614624,-1.616104 -2.039001,-0.881668c-0.42395,0.734833 -3.990173,5.289047 -5.602081,4.848297c-1.614777,-0.440826 -0.424103,-0.734436 -1.529999,-0.881287c-1.102966,-0.147186 -1.866486,-0.440826 -2.036011,-1.322311c-0.169708,-0.881607 -1.190613,0.587708 -1.530212,-0.881607c-0.339172,-1.469254 -0.593597,-3.305534 -2.036285,-1.763092c-1.444885,1.542664 -1.954102,0.514221 -2.03891,0c-0.084808,-0.513916 -3.141785,0.293839 -3.056824,-1.322189c0.084991,-1.616158 -2.969238,0.51416 -2.545319,-1.322128c0.424408,-1.83654 -2.581848,-0.248993 -2.039032,-1.76329c1.190826,-3.305344 -4.074982,-0.293839 -3.565857,-1.762672c0.508911,-1.469406 -2.460388,-0.293991 -2.036163,-1.763382c0.424103,-1.469009 -2.828094,-0.958817 -2.548126,-2.203552c0.594025,-2.644501 -3.056915,-0.807877 -2.547974,-3.08551c0.508942,-2.277016 -2.319122,-0.015015 -2.036407,-1.762665c0.424591,-2.644676 -3.63916,-1.684212 -2.547852,-3.526375c1.69696,-2.86467 -1.744934,-1.633049 -1.018036,-3.084976c1.102936,-2.203522 -7.09256,0.244377 -5.096039,-3.526237c0.936066,-1.762863 -5.545624,-2.93663 -2.545013,-4.407532c5.093414,-2.497597 -7.810791,-1.248596 -1.530151,-5.28875c5.859344,-2.350792 6.218872,-2.572197 -1.017883,-2.203789c-2.887482,0.146736 -7.217072,-3.305603 -3.056946,-3.526108c4.159668,-0.220299 12.652252,-1.983315 3.056946,-2.644608c-9.595734,-0.660973 -9.934906,-3.672989 -6.114227,-3.525864c3.820526,0.146683 18.763672,0.146683 14.773651,-0.88147c-3.990479,-1.028481 -22.253601,-3.541962 -15.282776,-6.1707c3.311584,-1.248863 26.645325,5.391228 19.869568,0.881569c-1.105713,-0.734322 -11.888824,-3.379181 -15.794342,-7.051872c-3.905609,-3.673187 -3.141998,-4.187408 -1.018127,-3.526367c2.123718,0.661148 26.744293,10.357956 22.923676,7.052299c-0.678864,-0.587715 -14.773346,-6.391151 -16.809387,-11.459732c-2.038971,-5.068542 -0.084839,-3.74651 1.526764,-2.203781c1.614807,1.542686 24.781769,16.273811 20.887756,11.459724c-1.190521,-1.469307 -11.546692,-7.34568 -13.755432,-13.222481c-2.208832,-5.876881 -0.508942,-4.260887 1.018188,-2.64468c1.529663,1.615906 25.137909,23.633991 21.396362,15.867161c-0.848236,-1.763107 -8.319855,-7.272415 -9.168365,-12.341034c-0.851135,-5.068771 1.357513,-3.158718 2.545288,-1.322525c1.190735,1.836678 17.915405,24.682419 18.339447,20.715561c0,0 0.08493,0.073204 0.509216,0c0.42688,-0.07354 -0.339386,-2.130341 0.511841,-1.762863c0,0 0.339325,-1.615997 1.018097,-1.322426c0.678711,0.293655 1.357208,0.073708 1.526978,-1.762924c0.16983,-1.836609 5.180878,0.293755 6.62323,9.696541c0,0 1.01825,0.95369 1.01825,3.08506c0,1.102097 6.113953,6.464516 9.680023,6.170654c3.566223,-0.293907 8.659546,6.170723 10.189453,6.611145c1.527039,0.440941 4.923401,3.085526 10.188904,0.440941c5.263062,-2.644508 10.441162,-3.52607 6.111389,-3.96685c-4.32959,-0.440582 -3.48114,-1.909897 -1.527161,-2.203606c1.951294,-0.294029 10.443909,-0.440765 7.641296,-1.763283c-2.802429,-1.32206 -5.223328,-8.386482 -1.529846,-6.611328c1.529846,0.735023 6.956787,7.262367 6.113831,2.644798c-0.254333,-1.395729 -3.565857,-3.08506 -2.547791,-7.933319c1.020752,-4.848564 2.432129,-0.99157 2.547791,-0.441177c0.169617,0.808327 4.290466,10.840614 5.096497,5.729698c0.254517,-1.616051 -1.869446,-3.7463 -1.021118,-9.69635c0.848511,-5.950066 2.039063,0 2.039063,0c0,0 2.420593,6.093529 2.036011,9.256088c-0.169495,1.395348 2.20874,0.881271 2.039001,-1.763603c-0.169922,-2.644272 -1.442444,-8.447609 -0.509033,-8.373871c0.933289,0.073372 3.732849,3.933769 3.05719,7.05188c-0.254517,1.175331 3.650757,2.351006 -0.511963,4.848183c-4.159912,2.497665 -8.65918,7.492836 -8.65918,7.492836c0,0 1.006348,3.228401 -4.075439,4.848541c-3.226563,1.028214 -0.509155,3.085205 -0.509155,3.085205z" fill-opacity="null" stroke-opacity="null" stroke-width="1.5" stroke="#000" fill="#fff"/>
 </g>
</svg>